<svg xmlns="http://www.w3.org/2000/svg" viewBox="0 0 160 160" width="160" height="160" role="img">
<title>Momo, revenue: holds up a level balance scale, a coin in one pan and a receipt in the other</title>
<style><![CDATA[
  /* An img-embedded SVG gets a viewport equal to its rendered box, so this
     matches the data-size="sm" bucket (48px and under) that module.css
     names. Served as image/svg+xml it is parsed as strict XML, so this stays
     in CDATA and free of raw angle brackets. */
  @media (max-width: 48px) { .detail { display: none; } }
]]></style>
<g transform="translate(8 12)"><g fill="#FBF8F1" stroke="#FBF8F1" stroke-width="12" stroke-linejoin="round" stroke-linecap="round"><circle cx="60" cy="76" r="48"/><path d="M60 30V11" fill="none"/><circle cx="60" cy="11" r="6"/><path d="M15 86L6 101M103 70L117 58" fill="none"/><circle cx="6" cy="101" r="5.5"/><circle cx="117" cy="58" r="5.5"/><rect x="37" y="112" width="19" height="20" rx="4"/><rect x="64" y="112" width="19" height="20" rx="4"/></g><path d="M15 86L6 101M103 70L117 58" stroke="#8E9AA6" stroke-width="7" stroke-linecap="round"/><circle cx="6" cy="101" r="5.5" fill="#5C6773"/><circle cx="117" cy="58" r="5.5" fill="#5C6773"/><path d="M47 112v16M73 112v16" stroke="#8E9AA6" stroke-width="8"/><path d="M40.5 128.5h12M67.5 128.5h12" stroke="#5C6773" stroke-width="7" stroke-linecap="round"/><path d="M60 29V14" stroke="#8E9AA6" stroke-width="7" stroke-linecap="round"/><circle cx="60" cy="11" r="6" fill="#C8A04A"/><circle cx="60" cy="76" r="48" fill="#1B4B9E"/><path d="M90.81 39.19A48 48 0 1 1 23.19 106.81A48 48 0 0 0 90.81 39.19Z" fill="#14346E"/><g class="detail"><ellipse cx="60" cy="29.5" rx="7.5" ry="3.2" fill="#5C6773"/></g><g fill="#FFFFFF"><rect x="35" y="59" width="12" height="23" rx="6"/><rect x="73" y="59" width="12" height="23" rx="6"/></g><g fill="#FBF8F1" stroke="#FBF8F1" stroke-width="12" stroke-linejoin="round" stroke-linecap="round"><rect x="118" y="14" width="4" height="53" rx="2"/><circle cx="120" cy="13" r="3.5"/><rect x="104" y="16.5" width="32" height="4.5" rx="2.25"/><circle cx="106" cy="31.5" r="5.5"/><path d="M129 37V26.5L130.67 25L132.33 26.5L134 25L135.67 26.5L137.33 25L139 26.5V37ZM98 36H114A8 5 0 0 1 98 36ZM126 36H142A8 5 0 0 1 126 36Z"/></g><path d="M106 19L98.5 36M106 19L113.5 36M134 19L126.5 36M134 19L141.5 36" stroke="#5C6773" stroke-width="1.8" stroke-linecap="round"/><rect x="118" y="14" width="4" height="53" rx="2" fill="#8E9AA6"/><circle cx="120" cy="13" r="3.5" fill="#5C6773"/><rect x="104" y="16.5" width="32" height="4.5" rx="2.25" fill="#8E9AA6"/><g class="detail"><circle cx="120" cy="18.75" r="1.6" fill="#C8A04A"/></g><circle cx="106" cy="31.5" r="5.5" fill="#8E9AA6"/><path d="M129 37V26.5L130.67 25L132.33 26.5L134 25L135.67 26.5L137.33 25L139 26.5V37Z" fill="#D8C3A0"/><g class="detail"><circle cx="106" cy="31.5" r="3.3" fill="none" stroke="#5C6773" stroke-width="1.2"/><path d="M131 29.5h6M131 32h4" stroke="#5C6773" stroke-width="1"/></g><path d="M98 36H114A8 5 0 0 1 98 36ZM126 36H142A8 5 0 0 1 126 36Z" fill="#5C6773"/><circle cx="117" cy="58" r="5.5" fill="#5C6773"/></g>
</svg>
